<?xml version="1.0" standalone="no"?>
<!DOCTYPE svg PUBLIC "-//W3C//DTD SVG 20010904//EN"
 "http://www.w3.org/TR/2001/REC-SVG-20010904/DTD/svg10.dtd">
<svg version="1.0" xmlns="http://www.w3.org/2000/svg"
 width="400.000000pt" height="300.000000pt" viewBox="0 0 400.000000 300.000000"
 preserveAspectRatio="xMidYMid meet">

<g transform="translate(0.000000,300.000000) scale(0.100000,-0.100000)"
fill="#eeeeee" stroke="none">
<path d="M1510 1796 l0 -284 -77 -17 c-43 -9 -125 -29 -183 -44 l-105 -27 -3
-92 c-2 -71 0 -92 10 -92 8 0 83 18 168 40 85 22 163 40 173 40 16 0 17 -16
17 -195 l0 -195 90 0 90 0 2 217 3 217 75 13 c89 15 434 63 455 63 13 0 15
-37 15 -260 l0 -260 90 0 90 0 0 269 0 269 93 7 c52 4 176 10 278 14 l184 6
-1 28 c-1 15 -2 55 -2 90 l-2 62 -232 -7 c-128 -3 -252 -9 -275 -13 l-43 -6 0
215 0 216 -90 0 -90 0 -2 -222 -3 -222 -175 -22 c-96 -12 -215 -29 -265 -38
-49 -9 -93 -16 -97 -16 -5 0 -8 119 -8 265 l0 265 -90 0 -90 0 0 -284z"/>
</g>
</svg>
